<?xml version="1.0" encoding="UTF-8" standalone="no"?>
<svg
   id="Layer_1"
   enable-background="new 0 0 512 512"
   height="512"
   viewBox="0 0 512 512"
   width="512"
   version="1.1"
   sodipodi:docname="close.svg"
   inkscape:version="1.3.2 (091e20e, 2023-11-25, custom)"
   inkscape:export-filename="close.png"
   inkscape:export-xdpi="96"
   inkscape:export-ydpi="96"
   xmlns:inkscape="http://www.inkscape.org/namespaces/inkscape"
   xmlns:sodipodi="http://sodipodi.sourceforge.net/DTD/sodipodi-0.dtd"
   xmlns="http://www.w3.org/2000/svg"
   xmlns:svg="http://www.w3.org/2000/svg">
  <defs
     id="defs1" />
  <sodipodi:namedview
     id="namedview1"
     pagecolor="#ffffff"
     bordercolor="#000000"
     borderopacity="0.25"
     inkscape:showpageshadow="2"
     inkscape:pageopacity="0.0"
     inkscape:pagecheckerboard="0"
     inkscape:deskcolor="#d1d1d1"
     inkscape:zoom="1.4296875"
     inkscape:cx="256"
     inkscape:cy="255.65027"
     inkscape:window-width="1920"
     inkscape:window-height="991"
     inkscape:window-x="-9"
     inkscape:window-y="-9"
     inkscape:window-maximized="1"
     inkscape:current-layer="Layer_2_00000065059526256240422560000002300005481942928013_" />
  <g
     id="Layer_2_00000065059526256240422560000002300005481942928013_">
    <g
       id="cross">
      <path
         d="m359.8 256 140.3-140.3c15.9-15.9 15.9-41.7 0-57.6l-46.1-46.1c-16-16-41.8-16-57.7-.1l-140.3 140.3-140.3-140.3c-15.9-15.9-41.7-15.9-57.6 0l-46.2 46.2c-15.9 15.9-15.9 41.7 0 57.6l140.3 140.3-140.3 140.3c-15.9 15.9-15.9 41.7 0 57.6l46.1 46.1c15.9 15.9 41.7 15.9 57.6 0l140.4-140.2 140.3 140.3c15.9 15.9 41.7 15.9 57.6 0l46.1-46.1c15.9-15.9 15.9-41.7 0-57.6z"
         id="path1"
         style="fill:#ffffff" />
    </g>
  </g>
</svg>
