<?xml version="1.0" encoding="UTF-8" standalone="no"?>
<svg
   height="512"
   viewBox="0 0 64 64"
   width="512"
   version="1.1"
   id="svg7"
   sodipodi:docname="favicon.svg"
   inkscape:export-filename="favicon.png"
   inkscape:export-xdpi="96"
   inkscape:export-ydpi="96"
   inkscape:version="1.3.2 (091e20e, 2023-11-25, custom)"
   xmlns:inkscape="http://www.inkscape.org/namespaces/inkscape"
   xmlns:sodipodi="http://sodipodi.sourceforge.net/DTD/sodipodi-0.dtd"
   xmlns="http://www.w3.org/2000/svg"
   xmlns:svg="http://www.w3.org/2000/svg">
  <defs
     id="defs7" />
  <sodipodi:namedview
     id="namedview7"
     pagecolor="#ffffff"
     bordercolor="#000000"
     borderopacity="0.25"
     inkscape:showpageshadow="2"
     inkscape:pageopacity="0.0"
     inkscape:pagecheckerboard="0"
     inkscape:deskcolor="#d1d1d1"
     inkscape:zoom="1.3125"
     inkscape:cx="256"
     inkscape:cy="255.61905"
     inkscape:window-width="1860"
     inkscape:window-height="991"
     inkscape:window-x="-9"
     inkscape:window-y="-9"
     inkscape:window-maximized="1"
     inkscape:current-layer="svg7" />
  <g
     id="flat">
    <circle
       cx="32"
       cy="32"
       fill="#645191"
       r="21"
       id="circle1" />
    <g
       fill="#4e407a"
       id="g4">
      <path
         d="m35 50a20.995 20.995 0 0 1 -16.27-34.27 21 21 0 1 0 29.54 29.54 20.906 20.906 0 0 1 -13.27 4.73z"
         id="path1" />
      <circle
         cx="19"
         cy="30"
         r="3"
         id="circle2" />
      <circle
         cx="36"
         cy="34"
         r="3"
         id="circle3" />
      <path
         d="m41 45a3.985 3.985 0 0 0 -2.615 7.005 20.937 20.937 0 0 0 6.566-3.5 3.987 3.987 0 0 0 -3.951-3.505z"
         id="path3" />
      <circle
         cx="31"
         cy="20"
         r="4"
         id="circle4" />
      <path
         d="m48.694 19.3a21.069 21.069 0 0 0 -3.994-3.994 2.993 2.993 0 1 0 3.994 3.994z"
         id="path4" />
    </g>
    <path
       d="m60.89 23.63c-.67-2.34-4.99-3.37-11.31-3.11a19.647 19.647 0 0 1 1.63 2.99c2.76.03 4.51.54 4.8 1.54s-.92 2.36-3.24 3.86c-3.92 2.56-11.01 5.56-19.36 7.97s-15.94 3.68-20.62 3.61c-2.76-.03-4.51-.54-4.8-1.54s.92-2.36 3.24-3.86a21.006 21.006 0 0 1 -.23-3.09c0-.1 0-.2.01-.3-5.48 3.15-8.58 6.33-7.9 8.67s4.99 3.37 11.31 3.11a87.347 87.347 0 0 0 19.87-3.56 86.854 86.854 0 0 0 18.7-7.62c5.48-3.15 8.58-6.33 7.9-8.67z"
       fill="#e6afe6"
       id="path5" />
    <path
       d="m11.5 12.5 3.5-1.5-3.5-1.5-1.5-4.5-1.5 4.5-3.5 1.5 3.5 1.5 1.5 4.5z"
       fill="#fdca79"
       id="path6" />
    <path
       d="m57.5 52.5 3.5-1.5-3.5-1.5-1.5-4.5-1.5 4.5-3.5 1.5 3.5 1.5 1.5 4.5z"
       fill="#fdca79"
       id="path7" />
  </g>
</svg>
